<svg width="36" height="44" viewBox="0 0 36 44" fill="none" xmlns="http://www.w3.org/2000/svg">
<path d="M28.5 15.25C28.925 15.25 29.2813 15.1062 29.5688 14.8187C29.8563 14.5312 30 14.175 30 13.75C30 13.325 29.8563 12.9687 29.5688 12.6812C29.2813 12.3937 28.925 12.25 28.5 12.25C28.075 12.25 27.7188 12.3937 27.4313 12.6812C27.1438 12.9687 27 13.325 27 13.75C27 14.175 27.1438 14.5312 27.4313 14.8187C27.7188 15.1062 28.075 15.25 28.5 15.25ZM22.5 15.25C22.925 15.25 23.2812 15.1062 23.5688 14.8187C23.8563 14.5312 24 14.175 24 13.75C24 13.325 23.8563 12.9687 23.5688 12.6812C23.2812 12.3937 22.925 12.25 22.5 12.25C22.075 12.25 21.7188 12.3937 21.4313 12.6812C21.1438 12.9687 21 13.325 21 13.75C21 14.175 21.1438 14.5312 21.4313 14.8187C21.7188 15.1062 22.075 15.25 22.5 15.25ZM21.75 20.35H29.25C29.25 19.475 28.8688 18.7812 28.1063 18.2687C27.3438 17.7562 26.475 17.5 25.5 17.5C24.525 17.5 23.6562 17.7562 22.8938 18.2687C22.1313 18.7812 21.75 19.475 21.75 20.35ZM10.5 37C10.5 37 9.875 37 8.625 37C7.375 37 5.875 36.125 4.125 34.375C2.375 32.625 1.5 30.5 1.5 28V17.5H19.5V28C19.5 30.5 18.625 32.625 16.875 34.375C15.125 36.125 13 37 10.5 37ZM10.5 34C10.5 34 10.9125 34 11.7375 34C12.5625 34 13.5625 33.4125 14.7375 32.2375C15.9125 31.0625 16.5 29.65 16.5 28V20.5H4.5V28C4.5 29.65 5.0875 31.0625 6.2625 32.2375C7.4375 33.4125 8.85 34 10.5 34ZM25.5 26.5C24.85 26.5 24.2063 26.4312 23.5688 26.2937C22.9313 26.1562 22.325 25.95 21.75 25.675V22.15C22.3 22.575 22.8938 22.9062 23.5312 23.1437C24.1688 23.3812 24.825 23.5 25.5 23.5C27.15 23.5 28.5625 22.9125 29.7375 21.7375C30.9125 20.5625 31.5 19.15 31.5 17.5V10H19.5V15.25H16.5V7H34.5V17.5C34.5 20 33.625 22.125 31.875 23.875C30.125 25.625 28 26.5 25.5 26.5ZM7.5 25.75C7.925 25.75 8.28125 25.6062 8.56875 25.3187C8.85625 25.0312 9 24.675 9 24.25C9 23.825 8.85625 23.4687 8.56875 23.1812C8.28125 22.8937 7.925 22.75 7.5 22.75C7.075 22.75 6.71875 22.8937 6.43125 23.1812C6.14375 23.4687 6 23.825 6 24.25C6 24.675 6.14375 25.0312 6.43125 25.3187C6.71875 25.6062 7.075 25.75 7.5 25.75ZM13.5 25.75C13.5 25.75 13.6063 25.75 13.8188 25.75C14.0313 25.75 14.2813 25.6062 14.5688 25.3187C14.8563 25.0312 15 24.675 15 24.25C15 23.825 14.8563 23.4687 14.5688 23.1812C14.2813 22.8937 13.925 22.75 13.5 22.75C13.075 22.75 12.7188 22.8937 12.4313 23.1812C12.1438 23.4687 12 23.825 12 24.25C12 24.675 12.1438 25.0312 12.4313 25.3187C12.7188 25.6062 13.075 25.75 13.5 25.75ZM10.5 30.85C10.5 30.85 10.7438 30.85 11.2313 30.85C11.7188 30.85 12.3438 30.5937 13.1063 30.0812C13.8688 29.5687 14.25 28.875 14.25 28H6.75C6.75 28.875 7.13125 29.5687 7.89375 30.0812C8.65625 30.5937 9.525 30.85 10.5 30.85Z" fill="url(#paint0_linear_3_95)"/>
<defs>
<linearGradient id="paint0_linear_3_95" x1="18" y1="7" x2="18" y2="37" gradientUnits="userSpaceOnUse">
<stop stop-color="#D4AF37"/>
<stop offset="1" stop-color="#6E5B1D"/>
</linearGradient>
</defs>
</svg>
