<svg width="32" height="33" viewBox="0 0 32 33" fill="none" xmlns="http://www.w3.org/2000/svg">
<path d="M29.5111 33L18.3111 21.45C17.4222 22.1833 16.4 22.7639 15.2444 23.1917C14.0889 23.6194 12.8593 23.8333 11.5556 23.8333C8.32593 23.8333 5.59259 22.6799 3.35556 20.3729C1.11852 18.066 0 15.2472 0 11.9167C0 8.58611 1.11852 5.76736 3.35556 3.46042C5.59259 1.15347 8.32593 0 11.5556 0C14.7852 0 17.5185 1.15347 19.7556 3.46042C21.9926 5.76736 23.1111 8.58611 23.1111 11.9167C23.1111 13.2611 22.9037 14.5292 22.4889 15.7208C22.0741 16.9125 21.5111 17.9667 20.8 18.8833L32 30.4333L29.5111 33ZM11.5556 20.1667C13.7778 20.1667 15.6667 19.3646 17.2222 17.7604C18.7778 16.1562 19.5556 14.2083 19.5556 11.9167C19.5556 9.625 18.7778 7.67708 17.2222 6.07292C15.6667 4.46875 13.7778 3.66667 11.5556 3.66667C9.33333 3.66667 7.44444 4.46875 5.88889 6.07292C4.33333 7.67708 3.55556 9.625 3.55556 11.9167C3.55556 14.2083 4.33333 16.1562 5.88889 17.7604C7.44444 19.3646 9.33333 20.1667 11.5556 20.1667Z" fill="white" fill-opacity="0.7"/>
</svg>
